<svg xmlns="http://www.w3.org/2000/svg" width="36.754" height="40.552" viewBox="0 0 36.754 40.552">
  <path id="Shield" d="M22.272,39.093c4.311-1.951,14.482-7.98,14.482-21.426V9.544c0-2.288,0-3.434-.446-4.309a4.1,4.1,0,0,0-1.791-1.789C33.641,3,32.5,3,30.2,3H10.551c-2.293,0-3.44,0-4.316.446A4.092,4.092,0,0,0,4.446,5.235C4,6.111,4,7.258,4,9.551v8.116C4,31.113,14.17,37.142,18.481,39.093a4.113,4.113,0,0,0,1.2.4,5.725,5.725,0,0,0,1.385,0,4.085,4.085,0,0,0,1.2-.4Z" transform="translate(-2 -1)" fill="none" stroke="#fcd526" stroke-linecap="round" stroke-linejoin="round" stroke-width="4"/>
</svg>
