<svg xmlns="http://www.w3.org/2000/svg" width="144.376" height="23" viewBox="0 0 144.376 23">
  <g id="Group_26" data-name="Group 26" transform="translate(-541.816 -6540)">
    <path id="Path_23" data-name="Path 23" d="M28.774,29.395a.515.515,0,0,0,.232.058.575.575,0,0,0,.29-.1.457.457,0,0,0,.193-.464l-1.334-7.733,5.626-5.471a.487.487,0,0,0,.116-.5.481.481,0,0,0-.387-.329l-7.771-1.121L22.259,6.7a.507.507,0,0,0-.87,0l-3.48,7.037-7.752,1.121a.481.481,0,0,0-.387.329.531.531,0,0,0,.116.5l5.626,5.471-1.334,7.733a.444.444,0,0,0,.193.464.475.475,0,0,0,.5.039l6.96-3.654Z" transform="translate(532.068 6533.547)" fill="#fcd625"/>
    <path id="Path_26" data-name="Path 26" d="M28.774,29.395a.515.515,0,0,0,.232.058.575.575,0,0,0,.29-.1.457.457,0,0,0,.193-.464l-1.334-7.733,5.626-5.471a.487.487,0,0,0,.116-.5.481.481,0,0,0-.387-.329l-7.771-1.121L22.259,6.7a.507.507,0,0,0-.87,0l-3.48,7.037-7.752,1.121a.481.481,0,0,0-.387.329.531.531,0,0,0,.116.5l5.626,5.471-1.334,7.733a.444.444,0,0,0,.193.464.475.475,0,0,0,.5.039l6.96-3.654Z" transform="translate(562.118 6533.547)" fill="#fcd625"/>
    <path id="Path_27" data-name="Path 27" d="M28.774,29.395a.515.515,0,0,0,.232.058.575.575,0,0,0,.29-.1.457.457,0,0,0,.193-.464l-1.334-7.733,5.626-5.471a.487.487,0,0,0,.116-.5.481.481,0,0,0-.387-.329l-7.771-1.121L22.259,6.7a.507.507,0,0,0-.87,0l-3.48,7.037-7.752,1.121a.481.481,0,0,0-.387.329.531.531,0,0,0,.116.5l5.626,5.471-1.334,7.733a.444.444,0,0,0,.193.464.475.475,0,0,0,.5.039l6.96-3.654Z" transform="translate(592.168 6533.547)" fill="#fcd625"/>
    <path id="Path_28" data-name="Path 28" d="M28.774,29.395a.515.515,0,0,0,.232.058.575.575,0,0,0,.29-.1.457.457,0,0,0,.193-.464l-1.334-7.733,5.626-5.471a.487.487,0,0,0,.116-.5.481.481,0,0,0-.387-.329l-7.771-1.121L22.259,6.7a.507.507,0,0,0-.87,0l-3.48,7.037-7.752,1.121a.481.481,0,0,0-.387.329.531.531,0,0,0,.116.5l5.626,5.471-1.334,7.733a.444.444,0,0,0,.193.464.475.475,0,0,0,.5.039l6.96-3.654Z" transform="translate(622.218 6533.547)" fill="#fcd625"/>
    <path id="Path_29" data-name="Path 29" d="M28.774,29.395a.515.515,0,0,0,.232.058.575.575,0,0,0,.29-.1.457.457,0,0,0,.193-.464l-1.334-7.733,5.626-5.471a.487.487,0,0,0,.116-.5.481.481,0,0,0-.387-.329l-7.771-1.121L22.259,6.7a.507.507,0,0,0-.87,0l-3.48,7.037-7.752,1.121a.481.481,0,0,0-.387.329.531.531,0,0,0,.116.5l5.626,5.471-1.334,7.733a.444.444,0,0,0,.193.464.475.475,0,0,0,.5.039l6.96-3.654Z" transform="translate(652.268 6533.547)" fill="#fcd625"/>
  </g>
</svg>
