<svg xmlns="http://www.w3.org/2000/svg" width="309.71" height="64" viewBox="0 0 309.71 64">
  <g id="Group_38" data-name="Group 38" transform="translate(0 -690)">
    <g id="AFZ-Logo" transform="translate(0 690)">
      <path id="Path_1" data-name="Path 1" d="M230.787,15.535a7.508,7.508,0,0,0-1.032-3.935,7.051,7.051,0,0,0-2.742-2.677,7.783,7.783,0,0,0-3.806-.935,7.67,7.67,0,0,0-3.919,1.048,7.41,7.41,0,0,0-3.661,6.5V16.7a3.741,3.741,0,0,1-.613,2.355,2.259,2.259,0,0,1-1.758.726,2.234,2.234,0,0,1-1.758-.726,3.709,3.709,0,0,1-.613-2.355V8.439h-3.242V16.7a3.641,3.641,0,0,1-.613,2.355,2.29,2.29,0,0,1-1.9.742H203.61V15.342a7.741,7.741,0,0,0-1.758-5.387,6.214,6.214,0,0,0-4.871-1.968,8.71,8.71,0,0,0-5.1,1.452,12.652,12.652,0,0,0-3.419,3.5V.132h-3.242V19.777h-3.177V15.519a7.508,7.508,0,0,0-1.032-3.935,7.161,7.161,0,0,0-2.742-2.677,8.024,8.024,0,0,0-7.726.113,7.41,7.41,0,0,0-3.661,6.5,7.8,7.8,0,0,0,1.032,3.935c.065.113.145.21.21.306h-2.565a2.509,2.509,0,0,1-2.145-.742,3.709,3.709,0,0,1-.613-2.355v-.6c0-.161.032-.323.032-.484,0-1.468-.032-6.129-.032-7.548V5.971h-3.242V8.035h-4.306a7.5,7.5,0,0,0-3.919,1.048,7.41,7.41,0,0,0-3.661,6.5,7.8,7.8,0,0,0,1.032,3.935,7.093,7.093,0,0,0,2.742,2.694,8.024,8.024,0,0,0,7.726-.113,8.337,8.337,0,0,0,1.565-1.226,5,5,0,0,0,4.21,1.726h40.532a5.273,5.273,0,0,0,3.726-1.258A5.37,5.37,0,0,0,213,22.6h.452a5,5,0,0,0,4.242-1.774,6.8,6.8,0,0,0,1.661,1.274,7.783,7.783,0,0,0,3.806.935,7.67,7.67,0,0,0,3.919-1.048,7.406,7.406,0,0,0,2.71-2.758,7.544,7.544,0,0,0,.952-3.774m-71.129.161a4.8,4.8,0,0,1-1.194,3.355,4.362,4.362,0,0,1-6.226,0A4.764,4.764,0,0,1,151,15.6a4.734,4.734,0,0,1,1.21-3.355,4.02,4.02,0,0,1,3.1-1.29h4.306V15.6Zm19.21,4.161h-5.242a2.957,2.957,0,0,1-2.177-.887,4.837,4.837,0,0,1-1.194-3.371,4.734,4.734,0,0,1,1.21-3.355,4.019,4.019,0,0,1,3.1-1.29,4.076,4.076,0,0,1,3.1,1.29,4.734,4.734,0,0,1,1.21,3.355v4.258Zm21.6,0H188.5V19.7a8.542,8.542,0,0,1,1.129-4.1,12.361,12.361,0,0,1,1.774-2.306,9.432,9.432,0,0,1,2.29-1.71,5.582,5.582,0,0,1,2.71-.677,4.36,4.36,0,0,1,2.048.387,3.632,3.632,0,0,1,1.339,1.048c.5.629.613,1.742.613,3.581v3.855Zm27.1-4.242a4.837,4.837,0,0,1-1.194,3.371,4.362,4.362,0,0,1-6.226,0,4.837,4.837,0,0,1-1.194-3.371,4.734,4.734,0,0,1,1.21-3.355,4.019,4.019,0,0,1,3.1-1.29,4.076,4.076,0,0,1,3.1,1.29,4.734,4.734,0,0,1,1.21,3.355M210.706,3.584a1.969,1.969,0,0,0,.581-1.452A1.908,1.908,0,0,0,210.706.7a2.149,2.149,0,0,0-2.9,0,1.908,1.908,0,0,0-.581,1.435,2.053,2.053,0,0,0,3.484,1.452m-32.081,0a1.969,1.969,0,0,0,.581-1.452A1.908,1.908,0,0,0,178.626.7a2.149,2.149,0,0,0-2.9,0,1.908,1.908,0,0,0-.581,1.435,2.053,2.053,0,0,0,3.484,1.452m-5.177,0a1.969,1.969,0,0,0,.581-1.452A1.908,1.908,0,0,0,173.448.7a2.149,2.149,0,0,0-2.9,0,1.908,1.908,0,0,0-.581,1.435,2.053,2.053,0,0,0,3.484,1.452m-14.1,0a1.969,1.969,0,0,0,.581-1.452A1.908,1.908,0,0,0,159.352.7a2.149,2.149,0,0,0-2.9,0,1.908,1.908,0,0,0-.581,1.435,2.053,2.053,0,0,0,3.484,1.452m-5.194,0a1.969,1.969,0,0,0,.581-1.452A1.908,1.908,0,0,0,154.158.7a2.149,2.149,0,0,0-2.9,0,1.908,1.908,0,0,0-.581,1.435,2.053,2.053,0,0,0,3.484,1.452M107.223,22.648h32.6V19.777h-6.452a4.43,4.43,0,0,1-1.4-.855,4.569,4.569,0,0,1-1.258-3.468,4.364,4.364,0,0,1,1.274-3.339,4.68,4.68,0,0,1,3.419-1.258,4.9,4.9,0,0,1,1.968.242,7.127,7.127,0,0,1,1.839.694l.419-2.758a8.191,8.191,0,0,0-2.065-.758A9.688,9.688,0,0,0,135.206,8a8.194,8.194,0,0,0-4.1.984,6.8,6.8,0,0,0-2.71,2.694,7.654,7.654,0,0,0-.952,3.871,8.058,8.058,0,0,0,.952,4.032c.048.081.113.129.161.21h-4.1a12.1,12.1,0,0,0,.113-1.565,10.8,10.8,0,0,0-1.323-5.274,9.4,9.4,0,0,0-3.694-3.629,11.191,11.191,0,0,0-5.532-1.339,8.063,8.063,0,0,0-3.226.435A10.639,10.639,0,0,0,108,9.584l.532,2.774a17.4,17.4,0,0,1,2.9-1.129,9.976,9.976,0,0,1,2.661-.355,7.582,7.582,0,0,1,3.661.871,6.436,6.436,0,0,1,2.532,2.516,7.953,7.953,0,0,1,.952,3.871,4.3,4.3,0,0,1-.161,1.661H107.594a2.29,2.29,0,0,1-1.9-.742,3.716,3.716,0,0,1-.6-2.355V15.552h0a7.508,7.508,0,0,0-1.032-3.935,7.051,7.051,0,0,0-2.742-2.677A7.783,7.783,0,0,0,97.513,8a7.669,7.669,0,0,0-3.919,1.048,7.41,7.41,0,0,0-3.661,6.5h0v1.161a3.641,3.641,0,0,1-.613,2.355,2.651,2.651,0,0,1-3.645,0,3.709,3.709,0,0,1-.613-2.355V.132H81.819V16.761q0,5.879,5.371,5.887h.6a4.968,4.968,0,0,0,4.226-1.774,6.8,6.8,0,0,0,1.661,1.274,7.783,7.783,0,0,0,3.806.935,7.67,7.67,0,0,0,3.919-1.048,6.679,6.679,0,0,0,1.532-1.21,4.978,4.978,0,0,0,4.258,1.79m-5.371-7.081a4.837,4.837,0,0,1-1.194,3.371,4.362,4.362,0,0,1-6.226,0,4.837,4.837,0,0,1-1.194-3.371,4.734,4.734,0,0,1,1.21-3.355,4.019,4.019,0,0,1,3.1-1.29,4.076,4.076,0,0,1,3.1,1.29,4.734,4.734,0,0,1,1.21,3.355M76.852,27.342A9.412,9.412,0,0,0,79.3,20.423V8.439H75.787v11.71a7.037,7.037,0,0,1-1.468,4.871,5.534,5.534,0,0,1-4.306,1.629,5.474,5.474,0,0,1-4.29-1.629,7.145,7.145,0,0,1-1.452-4.871v-4.6H60.755v4.887a9.464,9.464,0,0,0,2.419,6.919,9.068,9.068,0,0,0,6.79,2.468,9.391,9.391,0,0,0,6.9-2.468m-5.774-16.21A1.97,1.97,0,0,0,71.674,9.7a1.908,1.908,0,0,0-.581-1.435,2.149,2.149,0,0,0-2.9,0A1.908,1.908,0,0,0,67.61,9.7a2.053,2.053,0,0,0,3.484,1.452m-21.387,11.5h3.242V.1H49.706V22.648Zm-2.419,0V.1H44.045V19.923H40.723a11.618,11.618,0,0,0,.129-1.694,10.777,10.777,0,0,0-1.29-5.274,9.3,9.3,0,0,0-3.694-3.629,11.191,11.191,0,0,0-5.532-1.339,8.063,8.063,0,0,0-3.226.435A10.639,10.639,0,0,0,24.3,9.584l.532,2.774a17.4,17.4,0,0,1,2.9-1.129,9.976,9.976,0,0,1,2.661-.355,7.582,7.582,0,0,1,3.661.871,6.436,6.436,0,0,1,2.532,2.516,7.939,7.939,0,0,1,.919,3.871,4.414,4.414,0,0,1-.194,1.806H21.19V8.439h-3.4v15.1A3.8,3.8,0,0,1,17.142,26a2.449,2.449,0,0,1-2,.79,4.222,4.222,0,0,1-1.452-.177l1.194,3.177c.21,0,.419.032.645.032q5.661,0,5.661-6.194v-.952H47.271ZM14.11,19.31a7.545,7.545,0,0,0,.952-3.774A7.756,7.756,0,0,0,14.029,11.6a7.161,7.161,0,0,0-2.742-2.677,7.783,7.783,0,0,0-3.806-.935A7.669,7.669,0,0,0,3.561,9.035,7.41,7.41,0,0,0-.1,15.535,7.8,7.8,0,0,0,.932,19.471a7.093,7.093,0,0,0,2.742,2.694,7.783,7.783,0,0,0,3.806.935A7.712,7.712,0,0,0,11.4,22.052a7.406,7.406,0,0,0,2.71-2.758M11.8,15.535a4.837,4.837,0,0,1-1.194,3.371A4.043,4.043,0,0,1,7.5,20.213a4.043,4.043,0,0,1-3.113-1.306A4.764,4.764,0,0,1,3.19,15.535,4.734,4.734,0,0,1,4.4,12.181a4.019,4.019,0,0,1,3.1-1.29,4.076,4.076,0,0,1,3.1,1.29,4.734,4.734,0,0,1,1.21,3.355M11.561,3.584a1.969,1.969,0,0,0,.581-1.452A1.908,1.908,0,0,0,11.561.7a2.149,2.149,0,0,0-2.9,0,1.908,1.908,0,0,0-.581,1.435A1.984,1.984,0,0,0,10.11,4.165a1.97,1.97,0,0,0,1.452-.581m-5.194,0a1.97,1.97,0,0,0,.581-1.452A1.908,1.908,0,0,0,6.368.7,2.021,2.021,0,0,0,4.916.132,2.021,2.021,0,0,0,3.465.7a1.908,1.908,0,0,0-.581,1.435A1.984,1.984,0,0,0,4.916,4.165a1.97,1.97,0,0,0,1.452-.581M112.852,26.342a1.908,1.908,0,0,0-.581,1.435,2.032,2.032,0,1,0,4.065,0,1.908,1.908,0,0,0-.581-1.435,2.149,2.149,0,0,0-2.9,0" transform="translate(0.1 -0.084)" fill="#fff"/>
      <path id="Path_2" data-name="Path 2" d="M0,232.016H3.758l2.371-6.29h9.6l2.355,6.29h3.935l-9.032-22.5H9.016Zm7.226-9.226,3.677-9.839,3.71,9.839ZM30.1,232.016h3.4v-8.161a4.7,4.7,0,0,1,.935-3.1,3.121,3.121,0,0,1,2.532-1.145,2.65,2.65,0,0,1,2.29.968,5.033,5.033,0,0,1,.726,3.016v8.419h3.4v-8.129a4.964,4.964,0,0,1,.9-3.145,3.044,3.044,0,0,1,2.532-1.129,2.617,2.617,0,0,1,2.29.984,4.883,4.883,0,0,1,.758,3v8.419h3.4v-9.048a7.013,7.013,0,0,0-1.435-4.726,5.233,5.233,0,0,0-4.161-1.645,4.493,4.493,0,0,0-2.968.726,4.822,4.822,0,0,0-2.016,2,4.765,4.765,0,0,0-1.823-2.032,5.328,5.328,0,0,0-2.806-.694,6.177,6.177,0,0,0-2.871.629A4.25,4.25,0,0,0,33.355,219l-.032-1.919H30.065v14.952ZM68.113,230l.065,2.016h3.29V217.065h-3.29l-.065,2.081a5.277,5.277,0,0,0-2.1-1.887,6.511,6.511,0,0,0-3-.661,7.266,7.266,0,0,0-3.742,1.113,7.563,7.563,0,0,0-2.6,2.919,8.567,8.567,0,0,0-.919,3.936,9.383,9.383,0,0,0,.935,4.177,6.75,6.75,0,0,0,6.177,3.774A5.78,5.78,0,0,0,68.113,230m-7.661-1.919a5.052,5.052,0,0,1-1.258-3.548A4.95,4.95,0,0,1,60.468,221a4.3,4.3,0,0,1,3.258-1.371A4.24,4.24,0,0,1,66.984,221a4.923,4.923,0,0,1,1.274,3.532A5.052,5.052,0,0,1,67,228.081a4.558,4.558,0,0,1-6.548,0m13.823,3.935h3.4v-8.129a4.785,4.785,0,0,1,.952-3.145,3.26,3.26,0,0,1,2.661-1.129,2.6,2.6,0,0,1,2.323.984,4.883,4.883,0,0,1,.758,3v8.419h3.4v-9.048a7.013,7.013,0,0,0-1.435-4.726A5.185,5.185,0,0,0,82.21,216.6a4.4,4.4,0,0,0-2.823.629A4.25,4.25,0,0,0,77.548,219l-.032-1.919H74.258v14.952Zm23.742,0h3.71v-9.435h8.887v-3.113h-8.887v-6.855h10.323V209.5H98.032V232Zm15.306,0h3.4v-7.032a5.88,5.88,0,0,1,1.016-3.661A3.338,3.338,0,0,1,120.565,220a2.867,2.867,0,0,1,1.774.355l.323-3.21a4.572,4.572,0,0,0-.855-.242,4.631,4.631,0,0,0-.887-.081,4.555,4.555,0,0,0-4.306,2.758l-.032-2.516h-3.258v14.952Zm21.71.161a10.13,10.13,0,0,0,2.613-.935l-.355-2.661a11.293,11.293,0,0,1-5.032,1.161,5.576,5.576,0,0,1-3.694-1.048,4.521,4.521,0,0,1-1.742-2.984h11.032a8.8,8.8,0,0,0,.113-1.694,8.239,8.239,0,0,0-.887-3.935,6.25,6.25,0,0,0-2.468-2.581,7.288,7.288,0,0,0-3.629-.887,7.889,7.889,0,0,0-3.968,1.048,7.31,7.31,0,0,0-2.661,2.855,8.713,8.713,0,0,0-.935,4.1,8.453,8.453,0,0,0,1.064,4.242,6.866,6.866,0,0,0,3,2.742,10.081,10.081,0,0,0,4.484.935,10.373,10.373,0,0,0,3.081-.339m-8.258-9.081a4.552,4.552,0,0,1,1.306-2.839,3.819,3.819,0,0,1,2.758-1,3.627,3.627,0,0,1,2.694,1,4.375,4.375,0,0,1,1.1,2.839Zm24.645,9.065a9.916,9.916,0,0,0,2.613-.935l-.355-2.661a11.292,11.292,0,0,1-5.032,1.161,5.576,5.576,0,0,1-3.694-1.048,4.521,4.521,0,0,1-1.742-2.984h11.032a8.806,8.806,0,0,0,.113-1.694,8.239,8.239,0,0,0-.887-3.935,6.25,6.25,0,0,0-2.468-2.581,7.288,7.288,0,0,0-3.629-.887,7.889,7.889,0,0,0-3.968,1.048,7.154,7.154,0,0,0-2.645,2.855,8.713,8.713,0,0,0-.935,4.1,8.453,8.453,0,0,0,1.065,4.242,6.866,6.866,0,0,0,3,2.742,10.058,10.058,0,0,0,4.468.935,10.446,10.446,0,0,0,3.081-.339m-8.258-9.081a4.552,4.552,0,0,1,1.306-2.839,3.819,3.819,0,0,1,2.758-1,3.627,3.627,0,0,1,2.694,1,4.375,4.375,0,0,1,1.1,2.839Zm19.629,8.9h17.839v-3.1H167.355l13.1-16.6V209.5H163.532v3.113h12.355l-13.065,16.6v2.806Zm31.242-.6a7.546,7.546,0,0,0,2.839-2.9,7.97,7.97,0,0,0,1-3.968,8.139,8.139,0,0,0-1.081-4.129,7.577,7.577,0,0,0-2.887-2.823,8.408,8.408,0,0,0-8.129.1,7.546,7.546,0,0,0-2.839,2.9,7.907,7.907,0,0,0-1.016,3.935,8.284,8.284,0,0,0,1.081,4.145,7.619,7.619,0,0,0,2.887,2.839,8.177,8.177,0,0,0,4,1,8.052,8.052,0,0,0,4.113-1.1m-7.355-3.339a5.052,5.052,0,0,1-1.258-3.548A4.95,4.95,0,0,1,186.694,221a4.3,4.3,0,0,1,3.258-1.371A4.24,4.24,0,0,1,193.21,221a4.923,4.923,0,0,1,1.274,3.532,5.052,5.052,0,0,1-1.258,3.548,4.558,4.558,0,0,1-6.548,0m13.726,3.935h3.4v-8.129a4.785,4.785,0,0,1,.952-3.145,3.26,3.26,0,0,1,2.661-1.129,2.6,2.6,0,0,1,2.323.984,4.883,4.883,0,0,1,.758,3v8.419h3.4v-9.048a7.013,7.013,0,0,0-1.436-4.726,5.185,5.185,0,0,0-4.129-1.645,4.4,4.4,0,0,0-2.823.629A4.25,4.25,0,0,0,203.677,219l-.032-1.919h-3.258v14.952Zm27.532.161a10.13,10.13,0,0,0,2.613-.935l-.355-2.661a11.293,11.293,0,0,1-5.032,1.161,5.576,5.576,0,0,1-3.694-1.048,4.441,4.441,0,0,1-1.726-2.984h11.032a8.808,8.808,0,0,0,.113-1.694,8.239,8.239,0,0,0-.887-3.935,6.25,6.25,0,0,0-2.468-2.581,7.288,7.288,0,0,0-3.629-.887,7.889,7.889,0,0,0-3.968,1.048,7.31,7.31,0,0,0-2.661,2.855,8.713,8.713,0,0,0-.936,4.1,8.453,8.453,0,0,0,1.065,4.242,6.866,6.866,0,0,0,3,2.742,10.081,10.081,0,0,0,4.484.935,10.373,10.373,0,0,0,3.081-.339m-8.274-9.081A4.552,4.552,0,0,1,221,220.274a3.819,3.819,0,0,1,2.758-1,3.627,3.627,0,0,1,2.694,1,4.375,4.375,0,0,1,1.1,2.839Z" transform="translate(0.016 -175.71)" fill="#fff"/>
      <path id="Path_3" data-name="Path 3" d="M126.4,272.839a3.8,3.8,0,0,1-.645,2.468,2.449,2.449,0,0,1-2,.79,4.221,4.221,0,0,1-1.452-.177l1.194,3.177c.21,0,.419.032.645.032q5.661,0,5.661-6.194V256.5h-3.4Z" transform="translate(-102.558 -215.129)" fill="#fff"/>
      <path id="Path_4" data-name="Path 4" d="M149.09,211.513a2.055,2.055,0,0,0-.613-1.516,2.144,2.144,0,0,0-1.532-.6,2.079,2.079,0,0,0-1.532.6,2.055,2.055,0,0,0-.613,1.516,2.145,2.145,0,1,0,4.29,0" transform="translate(-121.429 -175.626)" fill="#fff"/>
      <path id="Path_5" data-name="Path 5" d="M1570.816.161V6.1a.162.162,0,0,0,.161.161h44.871a.267.267,0,0,0,.193-.081l7.274-6.032a.087.087,0,0,0-.048-.145h-52.29a.162.162,0,0,0-.161.161m0,12.5v5.9a.162.162,0,0,0,.161.161h29.871a.346.346,0,0,0,.194-.065l7.21-6a.087.087,0,0,0-.048-.145h-37.242a.162.162,0,0,0-.161.161m.016,12.452v5.984a.162.162,0,0,0,.161.161h14.774a.346.346,0,0,0,.193-.065l7.323-6.1a.087.087,0,0,0-.048-.145h-22.258a.162.162,0,0,0-.161.161m.016,12.565v5.935a.084.084,0,0,0,.129.065l7.226-6.016a.082.082,0,0,0-.048-.145h-7.145a.162.162,0,0,0-.161.161" transform="translate(-1317.429)" fill="#fff"/>
      <path id="Path_6" data-name="Path 6" d="M1632.443,70.815h9.451a.346.346,0,0,0,.194-.065l36.532-30.387a.342.342,0,0,0,.113-.242V32.3a.085.085,0,0,0-.129-.065l-46.226,38.452a.087.087,0,0,0,.048.145" transform="translate(-1369.056 -27.025)" fill="#fff"/>
      <path id="Path_7" data-name="Path 7" d="M1874.427,239.479h7.145a.162.162,0,0,0,.161-.161V233.4a.084.084,0,0,0-.129-.065l-7.226,6a.087.087,0,0,0,.048.145" transform="translate(-1572.024 -195.689)" fill="#fff"/>
      <path id="Path_8" data-name="Path 8" d="M1753.243,156.112h9.5a.4.4,0,0,0,.194-.065l17-14.016a.343.343,0,0,0,.113-.242V134a.084.084,0,0,0-.129-.065l-26.742,22.048a.087.087,0,0,0,.048.145" transform="translate(-1470.372 -112.321)" fill="#fff"/>
      <path id="Path_9" data-name="Path 9" d="M1571.061,316.558h56a.162.162,0,0,0,.161-.161v-5.935a.162.162,0,0,0-.161-.161h-56a.162.162,0,0,0-.161.161V316.4a.162.162,0,0,0,.161.161" transform="translate(-1317.513 -260.252)" fill="#fff"/>
    </g>
  </g>
</svg>
